# xmcd
#
# Track frame offsets: 
#        150
#        12910
#        24922
#        35887
#        50260
#        61565
#        74092
#        88632
#        102195
#        116762
#        134467
#        146117
#        157987
#        180520
#        191832
#        203975
#        214490
#        226037
#        235800
#        251005
#        262247
#        274536
#        285429
#        299145
#        309009
#
# Disc length: 4265 seconds
#
# Revision: 0
# Processed by: cddbd v1.5.2PL0 Copyright (c) Steve Scherf et al.
# Submitted via: ExactAudioCopy v0.99pb5
#
DISCID=7610a719
DTITLE=Various Artist - Romantic Remember Love Songs Vol.2-CD 2
DYEAR=2003
DGENRE=Pop
TTITLE0=You Don't Have To Say You Love Me-Dusty Springfield
TTITLE1=California Dreamin'-The Mama and The Papa
TTITLE2=Born Free-Roger Williams
TTITLE3=Guantanamera-The Sandpipers
TTITLE4=More-Andy Williams
TTITLE5=To Sir With Love-LuLu
TTITLE6=Release Me-Engelbert Humperdinck
TTITLE7=San Francisco-Scott McKenzie
TTITLE8=The Last Waltz-Engelbert Humperdinck
TTITLE9=Kiss Me Goodbye-Petula Clark
TTITLE10=A Time For Us-Andy Williams
TTITLE11=Love Is Blue-Paul Mauriat
TTITLE12=Those Were The Days-Mary Hopkin
TTITLE13=I Love How You Love Me-Bobby Vinton
TTITLE14=Sugar Sugar-The Archies
TTITLE15=To Know You Is To Love You-Bobby Vinton
TTITLE16=Rose Rose I Love You-Frankie Laine
TTITLE17=Seven Lonely Days-Georgia Gibbs
TTITLE18=I Went To Your Wedding-Patti Page
TTITLE19=Sho-Jo-Ji
TTITLE20=The Twelfth Of Never-Johnny Mathis
TTITLE21=All I Have To Do Is Dream-Everly Brothers
TTITLE22=Tom Dooley-The Kingston Trio
TTITLE23=Teqila-The Chamos
TTITLE24=Crazy Love-Paul Anka
EXTD=
EXTT0=
EXTT1=
EXTT2=
EXTT3=
EXTT4=
EXTT5=
EXTT6=
EXTT7=
EXTT8=
EXTT9=
EXTT10=
EXTT11=
EXTT12=
EXTT13=
EXTT14=
EXTT15=
EXTT16=
EXTT17=
EXTT18=
EXTT19=
EXTT20=
EXTT21=
EXTT22=
EXTT23=
EXTT24=
PLAYORDER=
